<svg xmlns="http://www.w3.org/2000/svg" xml:space="preserve" width="2000" height="1500" viewBox="0 0 2000 1500" data-version="1" data-id="lg_VEcNCMur4iDSSAQnCt" x="0" y="0"><rect width="2000" height="1500" id="background" stroke="transparent" fill="#28837a"></rect><g id="outer-wrapper" data-padding="20" transform="matrix(2.6785714285714284,0,0,2.6785714285714284,-1678.5714285714284,-1258.9285714285713)"><g id="inner-wrapper" transform="matrix(0.9642857142857143,0,0,0.9642857142857143,10,6.928571428571416)"><rect width="560" height="70.06" x="346.1666666666665" y="335.1010925925925" fill="none" rx="0" ry="0" transform="translate(400.5 511.5)"></rect><path fill="#cfeb9d" d="M776.7266666666667 901.7310925925924Q762.7166666666667 901.7310925925924 756.0866666666666 895.7710925925924Q749.4466666666666 889.8210925925923 749.4466666666666 878.7910925925923Q749.4466666666666 867.6910925925923 756.0866666666666 861.2410925925923Q762.7166666666667 854.7910925925923 776.7266666666667 854.7910925925923Q796.3166666666666 854.7910925925923 802.9566666666666 868.2510925925923Q797.3766666666666 870.1710925925923 789.8766666666666 874.0110925925923Q788.0766666666666 870.5410925925922 784.1966666666666 868.8710925925923Q780.3266666666666 867.1910925925923 776.2966666666666 867.1910925925923Q770.3466666666666 867.1910925925923 767.4266666666666 870.3210925925923Q764.5166666666667 873.4510925925923 764.5166666666667 878.0410925925923Q764.5166666666667 883.0010925925924 767.6466666666665 886.1310925925924T777.2266666666666 889.2610925925924Q782.3666666666666 889.2610925925924 785.4066666666666 887.5610925925923Q788.4466666666666 885.8510925925923 789.8766666666666 882.1310925925923Q794.9566666666666 884.8610925925923 802.8966666666666 888.2710925925924Q799.7966666666666 895.7710925925924 792.5366666666666 898.7510925925924Q785.2866666666666 901.7310925925924 776.7266666666667 901.7310925925924M835.5066666666667 901.7310925925924Q821.3066666666666 901.7310925925924 814.6066666666666 895.5610925925924Q807.9166666666666 889.3910925925925 807.9166666666666 878.2310925925924Q807.9166666666666 867.1910925925924 814.5766666666666 860.9910925925924Q821.2466666666667 854.7910925925925 835.5066666666667 854.7910925925925Q849.8266666666666 854.7910925925925 856.4966666666667 860.9910925925924Q863.1566666666666 867.1910925925924 863.1566666666666 878.2310925925924Q863.1566666666666 889.4510925925924 856.5266666666666 895.5910925925924Q849.8866666666667 901.7310925925924 835.5066666666667 901.7310925925924M835.5066666666667 889.0810925925924Q842.3866666666667 889.0810925925924 845.4266666666666 886.4410925925924Q848.4666666666666 883.8110925925924 848.4666666666666 878.2310925925924Q848.4666666666666 872.7710925925925 845.4266666666666 870.1110925925924Q842.3866666666667 867.4410925925924 835.5066666666667 867.4410925925924Q828.6866666666666 867.4410925925924 825.6466666666666 870.1110925925924Q822.6066666666667 872.7710925925925 822.6066666666667 878.2310925925924Q822.6066666666667 883.7510925925925 825.6466666666666 886.4110925925925Q828.6866666666666 889.0810925925924 835.5066666666667 889.0810925925924M904.9466666666667 856.1710925925925H920.1366666666667Q919.6966666666667 866.6410925925925 919.6966666666667 878.6110925925924Q919.6966666666667 890.6410925925925 920.1366666666667 901.1210925925925H897.9366666666667L882.9366666666667 867.2610925925925L884.0466666666666 901.1210925925925H868.1166666666667Q868.6166666666667 889.0910925925925 868.6166666666667 878.6110925925925Q868.6166666666667 868.1910925925924 868.1166666666667 856.1710925925925H890.9366666666667L905.9966666666667 890.9510925925925ZM961.9266666666667 856.1710925925925H977.1166666666667Q976.6766666666667 866.6410925925925 976.6766666666667 878.6110925925924Q976.6766666666667 890.6410925925925 977.1166666666667 901.1210925925925H954.9166666666667L939.9166666666667 867.2610925925925L941.0266666666666 901.1210925925925H925.0966666666667Q925.5866666666667 889.0910925925925 925.5866666666667 878.6110925925925Q925.5866666666667 868.1910925925924 925.0966666666667 856.1710925925925H947.9066666666668L962.9766666666667 890.9510925925925ZM996.7066666666667 883.3110925925924V889.7610925925925Q1020.2666666666667 889.6410925925925 1030.8666666666668 889.0810925925925Q1030.4366666666667 891.6210925925925 1030.3366666666666 894.3210925925925Q1030.2466666666667 897.0110925925926 1030.2466666666667 901.1110925925925H982.0766666666667Q982.5666666666667 889.0810925925925 982.5666666666667 878.6010925925925T982.0766666666667 856.0910925925925H1030.2466666666667V867.3210925925925H996.7066666666667V873.2710925925925Q999.6766666666667 873.3310925925925 1005.5066666666667 873.3310925925925Q1015.3666666666668 873.3310925925925 1025.9066666666668 872.9610925925925V883.6210925925925Q1015.3666666666667 883.2510925925925 1005.5066666666667 883.2510925925925Q999.6766666666667 883.2510925925925 996.7066666666667 883.3110925925924M1063.1066666666666 901.7310925925924Q1049.0966666666668 901.7310925925924 1042.4566666666667 895.7710925925924Q1035.8266666666668 889.8210925925923 1035.8266666666668 878.7910925925923Q1035.8266666666668 867.6910925925923 1042.4566666666667 861.2410925925923Q1049.0966666666668 854.7910925925923 1063.1066666666666 854.7910925925923Q1082.6966666666667 854.7910925925923 1089.3366666666666 868.2510925925923Q1083.7566666666667 870.1710925925923 1076.2466666666667 874.0110925925923Q1074.4566666666667 870.5410925925922 1070.5766666666668 868.8710925925923Q1066.7066666666667 867.1910925925923 1062.6766666666667 867.1910925925923Q1056.7166666666667 867.1910925925923 1053.8066666666668 870.3210925925923T1050.8966666666668 878.0410925925923Q1050.8966666666668 883.0010925925924 1054.0266666666666 886.1310925925924T1063.6066666666666 889.2610925925924Q1068.7466666666667 889.2610925925924 1071.7866666666666 887.5610925925923Q1074.8266666666668 885.8510925925923 1076.2466666666667 882.1310925925923Q1081.3366666666666 884.8610925925923 1089.2666666666667 888.2710925925924Q1086.1666666666665 895.7710925925924 1078.9166666666665 898.7510925925924T1063.1066666666666 901.7310925925924M1147.5466666666666 856.0910925925924V869.1110925925924Q1137.8166666666666 868.8010925925923 1128.6366666666665 868.7410925925924V901.1110925925924H1113.1366666666665V868.7410925925924Q1103.9066666666665 868.8010925925923 1094.2966666666666 869.1110925925924V856.0910925925924ZM1188.5366666666666 856.0910925925924V868.4310925925923Q1181.1566666666668 868.0610925925923 1177.6166666666668 868.0010925925924V889.2010925925924Q1181.2166666666667 889.1410925925925 1188.5366666666666 888.7710925925925V901.1110925925925H1152.5066666666667V888.7710925925925Q1159.6366666666668 889.1410925925925 1163.3566666666666 889.2010925925924V868.0010925925924Q1159.6366666666668 868.0610925925924 1152.5066666666667 868.4310925925924V856.0910925925924ZM1221.0866666666666 901.7310925925924Q1206.8866666666665 901.7310925925924 1200.1866666666665 895.5610925925924Q1193.4966666666664 889.3910925925925 1193.4966666666664 878.2310925925924Q1193.4966666666664 867.1910925925924 1200.1566666666665 860.9910925925924Q1206.8266666666664 854.7910925925925 1221.0866666666666 854.7910925925925Q1235.4066666666665 854.7910925925925 1242.0666666666666 860.9910925925924Q1248.7366666666665 867.1910925925924 1248.7366666666665 878.2310925925924Q1248.7366666666665 889.4510925925924 1242.0966666666664 895.5910925925924Q1235.4666666666665 901.7310925925924 1221.0866666666666 901.7310925925924M1221.0866666666666 889.0810925925924Q1227.9666666666665 889.0810925925924 1231.0066666666664 886.4410925925924Q1234.0366666666664 883.8110925925924 1234.0366666666664 878.2310925925924Q1234.0366666666664 872.7710925925925 1231.0066666666664 870.1110925925924Q1227.9666666666665 867.4410925925924 1221.0866666666666 867.4410925925924Q1214.2666666666664 867.4410925925924 1211.2266666666665 870.1110925925924Q1208.1866666666665 872.7710925925925 1208.1866666666665 878.2310925925924Q1208.1866666666665 883.7510925925925 1211.2266666666665 886.4110925925925Q1214.2666666666664 889.0810925925924 1221.0866666666666 889.0810925925924M1290.5266666666666 856.1710925925925H1305.7166666666667Q1305.2766666666666 866.6410925925925 1305.2766666666666 878.6110925925924Q1305.2766666666666 890.6410925925925 1305.7166666666667 901.1210925925925H1283.5166666666664L1268.5166666666664 867.2610925925925L1269.6266666666666 901.1210925925925H1253.6966666666667Q1254.1866666666665 889.0910925925925 1254.1866666666665 878.6110925925925Q1254.1866666666665 868.1910925925924 1253.6966666666667 856.1710925925925H1276.5066666666667L1291.5766666666666 890.9510925925925ZM989.2096666666666 603.2090925925924C971.2696666666666 601.8290925925924 964.0246666666667 614.9390925925924 964.0246666666667 614.9390925925924L952.6396666666667 645.2990925925924C954.3636666666666 642.1940925925924 956.7796666666666 638.0540925925924 962.6446666666666 637.3640925925923C976.0986666666666 635.9840925925923 986.7946666666667 643.5740925925924 986.7946666666667 643.5740925925924L999.9046666666666 606.6590925925923C999.5586666666666 607.0040925925923 998.8686666666666 604.2440925925923 989.2096666666666 603.2090925925924M1063.0396666666666 614.9390925925924S1054.4146666666666 623.9090925925923 1040.9596666666666 627.0140925925923C1030.6096666666667 629.4290925925924 1022.3296666666666 621.1490925925923 1022.3296666666666 621.1490925925923L1015.0846666666666 655.9940925925923C1027.8486666666668 653.9240925925923 1038.5446666666667 654.9590925925922 1048.5496666666668 650.1290925925923ZM1102.3696666666665 618.7340925925923L1106.5096666666666 580.0940925925923S1102.3696666666665 579.7490925925923 1095.4696666666666 582.5090925925923S1082.3596666666665 597.3440925925923 1082.3596666666665 597.3440925925923L1073.7346666666665 639.4340925925924S1077.8746666666666 631.8440925925923 1085.8096666666665 625.2890925925924C1094.0896666666665 618.7340925925923 1102.3696666666665 618.7340925925923 1102.3696666666665 618.7340925925923M1151.3596666666665 622.5290925925923L1155.1536666666666 576.6440925925923S1147.2196666666664 586.9940925925923 1141.0096666666664 590.4440925925924S1130.6596666666665 588.7190925925923 1130.6596666666665 588.7190925925923L1127.2096666666664 626.3240925925924S1130.3146666666664 627.7040925925924 1136.5246666666665 629.4290925925924C1143.4246666666663 630.8090925925924 1151.3586666666665 622.5290925925924 1151.3586666666665 622.5290925925924M1005.0786666666664 683.5940925925923L1015.0846666666664 655.9940925925923C1001.6296666666665 658.7540925925923 995.0746666666664 651.1640925925923 986.4496666666664 643.9190925925923C984.0336666666665 652.5440925925923 980.5846666666664 665.6540925925923 975.0646666666664 678.7640925925923C985.0696666666664 682.2140925925922 994.7296666666664 688.4240925925923 1005.0796666666664 683.5940925925922 "></path><path fill="#cfeb9d" d="M1067.5236666666667 665.6540925925924C1066.8336666666667 658.7540925925924 1071.3186666666666 648.4040925925924 1073.3886666666667 639.4340925925924C1070.6286666666667 643.5740925925924 1062.6936666666666 647.0240925925923 1048.2046666666665 650.1290925925923L1037.1646666666666 678.4190925925924C1046.4796666666666 674.2790925925924 1055.1046666666666 668.4140925925924 1067.5246666666667 665.6540925925924M1122.7246666666665 654.2690925925924L1127.2096666666666 626.3240925925924C1117.5496666666666 621.4940925925923 1111.6836666666666 620.1140925925924 1102.7146666666667 618.7340925925923L1095.4696666666666 653.5790925925924C1104.4396666666667 648.7490925925924 1115.8246666666666 650.4740925925923 1122.7246666666665 654.2690925925924M1148.2546666666667 649.7840925925924C1149.6346666666666 646.3340925925924 1156.8796666666667 644.9540925925924 1171.3696666666665 645.2990925925924V605.9690925925923C1161.3646666666666 616.6640925925924 1157.9146666666666 616.6640925925924 1151.7046666666665 622.5290925925924ZM941.2546666666666 681.1790925925924L929.5246666666666 708.4340925925924C944.0146666666666 693.2540925925923 951.6046666666666 700.8440925925923 964.3696666666666 704.6390925925923L975.4096666666667 678.7640925925923C959.5396666666666 677.0390925925923 952.6396666666667 669.4490925925924 941.2546666666666 681.1790925925924 "></path><path fill="#cfeb9d" d="M964.0246666666667 704.6390925925923C961.6086666666667 711.8840925925923 959.8846666666668 718.0940925925923 958.1596666666667 722.9240925925924C970.5796666666668 730.8590925925923 981.6196666666667 732.9290925925924 991.6246666666667 728.7890925925924L1001.9746666666667 698.7740925925924C991.9696666666667 707.7440925925924 978.1696666666667 706.3640925925923 964.0246666666667 704.6390925925924M1037.5096666666668 678.4190925925924C1029.2296666666668 683.9390925925924 1020.6036666666668 677.7290925925923 1005.4246666666668 683.5940925925923L1001.9746666666667 698.7740925925924C1009.2196666666669 693.5990925925923 1018.5346666666668 694.9790925925923 1028.8846666666668 697.7390925925923C1029.2286666666669 692.9090925925924 1033.0246666666667 686.3540925925923 1037.5096666666668 678.4190925925924M1067.5246666666667 665.6540925925924C1066.4896666666668 669.4490925925924 1057.8646666666668 678.0740925925924 1056.8296666666668 686.0090925925924C1065.7996666666668 690.1490925925924 1080.2896666666668 686.0090925925924 1086.1546666666668 679.7990925925924L1094.7796666666668 653.5790925925925C1077.1846666666668 668.7590925925924 1076.8396666666667 663.2390925925924 1067.5246666666667 665.6540925925924M1122.7246666666667 654.2690925925924L1118.5846666666669 674.2790925925924C1127.8996666666667 679.7990925925924 1135.8346666666669 679.7990925925924 1142.7346666666667 674.9690925925925L1148.2546666666667 649.7840925925924C1138.2496666666668 656.3390925925925 1129.6246666666668 658.4090925925924 1122.724666666667 654.2690925925924M1022.3296666666669 714.2990925925925C1023.7096666666669 711.1940925925925 1038.544666666667 708.7790925925925 1050.619666666667 710.5040925925924C1052.3446666666669 703.9490925925925 1056.139666666667 697.3940925925924 1056.829666666667 686.0090925925924C1047.8596666666667 691.5290925925924 1038.544666666667 696.0140925925924 1028.5396666666668 698.0840925925925ZM1069.9396666666669 713.2640925925924C1080.9796666666668 713.9540925925925 1098.919666666667 702.5690925925925 1112.7196666666669 695.6690925925925L1118.5846666666669 674.2790925925925C1107.544666666667 671.5190925925925 1096.849666666667 672.8990925925925 1086.4996666666668 679.7990925925925Z "></path><path fill="#cfeb9d" d="M1174.1296666666665 697.7390925925923L1172.0596666666665 666.6890925925924C1160.6736666666666 667.3790925925923 1149.9796666666664 668.4140925925924 1142.7336666666665 674.9690925925923L1139.2836666666662 690.4940925925923C1152.3936666666664 687.7340925925923 1159.6396666666665 689.1140925925923 1174.1296666666663 697.7390925925923M960.2296666666664 610.1090925925923C959.1936666666663 610.4540925925924 958.1596666666665 611.1440925925923 958.5036666666664 611.8340925925922L876.7386666666664 814.0040925925923C874.6686666666665 815.3840925925923 874.6686666666665 817.7990925925923 875.7036666666664 819.1790925925923S879.4986666666664 821.2490925925923 881.5686666666664 819.8690925925923S885.3636666666664 816.0740925925923 884.3286666666664 814.3490925925923L962.2986666666665 612.5240925925923C962.6436666666665 612.1790925925923 962.6436666666665 611.8340925925924 962.6436666666665 611.4890925925923C962.2986666666665 610.4540925925924 961.2636666666665 610.1090925925923 960.2296666666665 610.1090925925923 "></path><rect width="170.824" height="36.16" x="540.7546666666665" y="352.0510925925925" fill="none" rx="0" ry="0" transform="translate(400.5 575.27)"></rect><path fill="#cfeb9d" d="M969.6266666666666 953.2410925925924L970.8766666666666 954.3610925925924Q970.5866666666666 954.8710925925924 969.9266666666666 955.2410925925924Q969.2766666666666 955.6110925925924 968.5366666666666 955.6110925925924Q967.2566666666667 955.6110925925924 966.5366666666666 954.7810925925924Q965.8166666666666 953.9410925925923 965.9766666666667 952.6610925925924L967.0366666666666 944.6310925925924Q967.0966666666666 943.9910925925924 967.0966666666666 943.6710925925923Q967.0966666666666 940.8610925925924 964.2466666666667 940.8610925925924Q962.6466666666665 940.8610925925924 961.3966666666665 941.6910925925924Q960.1566666666665 942.5210925925925 958.7766666666666 944.1510925925925L957.2366666666666 955.4510925925924H955.3866666666665L956.8866666666665 944.1510925925925Q956.9566666666665 943.3810925925925 956.9566666666665 943.1010925925925Q956.9566666666665 941.4010925925925 956.0866666666666 940.4710925925925L957.4366666666665 939.2610925925925Q957.9466666666665 939.6410925925925 958.3566666666666 940.3610925925925Q958.7766666666666 941.0810925925925 958.8766666666666 941.9110925925925Q960.0866666666666 940.4410925925924 961.4666666666665 939.7810925925925Q962.8366666666666 939.1310925925925 964.4766666666665 939.1310925925925Q966.7466666666664 939.1310925925925 967.9466666666665 940.3410925925925Q969.1466666666665 941.5610925925926 968.9866666666666 943.9310925925926L967.7966666666666 952.8210925925925Q967.7666666666667 953.2710925925926 967.9966666666666 953.5410925925926Q968.2166666666666 953.8210925925925 968.5666666666666 953.8210925925925Q968.8866666666665 953.8210925925925 969.1766666666665 953.6610925925926T969.6266666666666 953.2410925925926M985.9166666666665 939.4510925925927H987.7666666666667L986.2366666666667 951.0310925925927L985.1466666666666 959.1610925925927Q984.8266666666666 961.6210925925927 983.3966666666666 963.0810925925927Q981.9766666666667 964.5410925925927 979.8966666666666 964.5410925925927Q978.0766666666666 964.5410925925927 976.9066666666666 963.3210925925927T975.7366666666667 960.1810925925927Q975.7366666666667 959.9010925925927 975.7966666666666 959.3810925925927Q975.9966666666667 958.0710925925928 976.5866666666666 957.0810925925928T978.1066666666666 955.6410925925927Q976.2466666666667 955.5110925925927 975.1766666666666 954.4210925925927Q974.1066666666666 953.3410925925926 974.1066666666666 951.6410925925927Q974.1066666666666 951.4510925925927 974.1666666666666 950.9410925925927L975.0666666666666 943.9910925925926Q975.1566666666665 943.3510925925926 975.1566666666665 942.8410925925926Q975.1566666666665 941.2110925925926 974.2666666666667 940.3110925925927L975.6066666666666 939.1010925925926Q976.2766666666666 939.6110925925926 976.7466666666666 940.6010925925926Q977.2066666666665 941.5910925925926 977.1166666666666 942.7410925925926L976.1166666666666 950.2310925925926Q976.0566666666666 950.9410925925927 976.0566666666666 951.1610925925926Q976.0566666666666 952.5710925925925 976.7466666666666 953.2410925925926T978.8766666666666 953.9110925925926Q980.2466666666666 953.9110925925926 981.4366666666665 953.2910925925926Q982.6166666666666 952.6610925925926 983.8366666666666 951.2610925925926Q984.1866666666665 950.9410925925926 984.3266666666666 950.6510925925926Q984.4766666666665 950.3610925925926 984.5066666666665 949.8810925925926ZM983.2866666666666 959.1610925925927L984.1866666666665 952.9810925925927Q983.5466666666666 953.8810925925927 983.0466666666666 954.3110925925928Q982.5566666666666 954.7410925925927 982.4566666666666 954.8110925925928L980.4366666666666 955.9910925925927Q979.0966666666666 956.6310925925927 978.4266666666666 957.4610925925928Q977.7566666666667 958.3010925925928 977.5966666666666 959.5110925925927Q977.5566666666666 959.7410925925927 977.5566666666666 960.1510925925927Q977.5566666666666 961.3710925925927 978.1866666666666 962.0210925925927Q978.8066666666666 962.6810925925927 979.9266666666666 962.6810925925927Q981.2066666666666 962.6810925925927 982.1166666666666 961.7210925925926Q983.0366666666666 960.7610925925926 983.2866666666666 959.1610925925927M994.5166666666667 955.7710925925927Q992.6666666666666 955.7710925925927 991.7866666666666 954.8210925925927Q990.9066666666666 953.8810925925926 990.9066666666666 952.0610925925927Q990.9066666666666 951.4510925925927 990.9966666666667 950.7810925925927L993.0166666666667 935.4510925925927H994.8766666666666L994.3266666666666 939.5110925925926H999.2266666666666L998.9666666666666 941.2410925925926H994.1066666666666L992.8266666666666 950.9010925925926Q992.7566666666667 951.5410925925926 992.7566666666667 951.8310925925925Q992.7566666666667 952.8910925925925 993.1766666666666 953.4610925925925Q993.5966666666666 954.0410925925926 994.5866666666666 954.0410925925926Q996.4066666666666 954.0410925925926 997.6266666666667 952.0610925925926L998.9366666666667 953.1110925925925Q998.0366666666666 954.4610925925925 996.9866666666667 955.1110925925925Q995.9266666666667 955.7710925925925 994.5166666666667 955.7710925925925M1016.4466666666667 964.3810925925925Q1014.6266666666667 964.3810925925925 1013.4266666666667 963.1910925925924Q1012.2266666666667 962.0110925925925 1012.2266666666667 960.1810925925924Q1012.2266666666667 957.3410925925924 1014.5666666666666 955.5810925925924Q1012.5466666666666 955.1010925925924 1011.3766666666667 953.2410925925924T1010.2066666666667 948.7310925925924Q1010.2066666666667 947.9910925925924 1010.3066666666666 947.2210925925924Q1010.6266666666667 944.7910925925925 1011.8066666666666 942.9510925925924Q1012.9966666666667 941.1110925925924 1014.8666666666667 940.1010925925924Q1016.7366666666667 939.1010925925924 1019.0066666666667 939.1010925925924Q1020.2266666666667 939.1010925925924 1020.7666666666667 939.1910925925924L1022.6266666666667 939.4210925925925H1024.4166666666667L1021.7966666666666 959.2210925925924Q1021.4766666666667 961.5610925925924 1020.0166666666667 962.9710925925924Q1018.5666666666667 964.3810925925924 1016.4466666666667 964.3810925925924M1015.8066666666667 953.9410925925923Q1017.2866666666667 953.9410925925923 1018.7566666666667 952.7610925925924Q1019.7466666666667 952.0910925925924 1020.4366666666667 951.2110925925924T1021.1866666666667 949.6210925925924L1022.3366666666667 941.1110925925924L1019.5266666666666 940.9510925925924H1018.5266666666666Q1016.9666666666667 940.9510925925924 1015.5866666666667 941.8210925925924Q1014.2066666666667 942.6810925925924 1013.2966666666666 944.1810925925924Q1012.3866666666667 945.6910925925924 1012.1266666666667 947.5810925925924Q1012.0366666666666 948.1810925925924 1012.0366666666666 948.7910925925925Q1012.0366666666666 951.0310925925925 1013.0866666666667 952.4910925925925Q1014.1466666666668 953.9410925925926 1015.8066666666667 953.9410925925926M1016.6466666666668 962.5210925925926Q1017.9266666666667 962.5210925925926 1018.8066666666667 961.5910925925926T1019.9666666666667 959.0010925925926L1020.8066666666667 952.8910925925926Q1020.7366666666667 952.9510925925925 1020.2766666666668 953.5410925925926Q1019.8066666666667 954.1410925925926 1019.2366666666667 954.6210925925926Q1018.7566666666667 954.9710925925926 1017.6666666666667 955.6110925925926Q1016.8966666666668 956.0210925925926 1016.2866666666667 956.4410925925927Q1014.4666666666667 957.4310925925927 1014.1766666666667 959.6110925925926Q1014.1466666666668 959.7710925925926 1014.1466666666668 960.0610925925927Q1014.1466666666668 961.1410925925927 1014.8466666666668 961.8310925925927Q1015.5566666666667 962.5210925925927 1016.6466666666668 962.5210925925927M1032.8966666666668 955.7710925925927Q1030.0866666666668 955.7710925925927 1028.5766666666668 953.8610925925927Q1027.0766666666668 951.9610925925928 1027.0766666666668 949.0210925925927Q1027.0766666666668 948.2510925925927 1027.1666666666667 947.4810925925927Q1027.4866666666667 945.0510925925928 1028.6566666666668 943.1610925925927T1031.6866666666667 940.2310925925927Q1033.5366666666669 939.1910925925928 1035.8466666666668 939.1910925925928Q1037.5666666666668 939.1910925925928 1039.5866666666668 939.4810925925927H1041.4766666666667L1039.7466666666667 952.7610925925927Q1039.7166666666667 952.8910925925927 1039.7166666666667 953.0810925925928Q1039.7166666666667 954.0110925925927 1040.5166666666669 954.0110925925927Q1041.1266666666668 954.0110925925927 1041.5366666666669 953.4310925925927L1042.7866666666669 954.5810925925927Q1042.2066666666667 955.2610925925926 1041.6166666666668 955.5110925925926Q1041.0266666666666 955.7710925925926 1040.3266666666668 955.7710925925926Q1039.2066666666667 955.7710925925926 1038.4666666666667 954.9810925925926Q1037.7266666666667 954.2010925925927 1037.8866666666668 953.1410925925926Q1036.9666666666667 954.4610925925926 1035.6866666666667 955.1110925925926Q1034.4066666666668 955.7710925925926 1032.8966666666668 955.7710925925926M1032.9966666666667 954.0410925925926Q1034.4366666666667 954.0410925925926 1035.6666666666667 953.3010925925926Q1036.8966666666668 952.5710925925925 1037.5666666666666 951.3810925925926Q1038.2066666666667 950.4610925925926 1038.3066666666668 949.3710925925926L1039.4566666666667 941.0510925925926L1037.4066666666668 940.9810925925925L1035.6866666666667 940.9210925925926Q1032.8366666666666 940.9210925925926 1031.1266666666666 942.7810925925926Q1029.4066666666668 944.6310925925926 1029.0266666666666 947.6110925925926Q1028.9266666666667 948.3110925925927 1028.9266666666667 949.0210925925926Q1028.9266666666667 951.2210925925926 1029.9366666666665 952.6310925925926T1032.9966666666667 954.0410925925926M1068.2266666666667 953.2510925925926L1069.4766666666667 954.3710925925926Q1069.1866666666665 954.8810925925926 1068.5266666666666 955.2510925925926Q1067.8766666666666 955.6210925925926 1067.1366666666668 955.6210925925926Q1065.8566666666666 955.6210925925926 1065.1366666666668 954.7910925925926Q1064.4166666666665 953.9510925925925 1064.5766666666666 952.6710925925926L1065.6966666666667 944.1910925925926Q1065.8266666666666 942.4710925925925 1065.2066666666667 941.6810925925926Q1064.5766666666666 940.9010925925926 1063.2066666666667 940.9010925925926Q1060.3566666666666 940.9010925925926 1058.3066666666666 944.1010925925926L1056.7666666666667 955.4610925925926H1054.9166666666665L1056.3566666666666 944.6410925925926Q1056.4166666666665 944.0010925925926 1056.4166666666665 943.7110925925926Q1056.4166666666665 942.3710925925926 1055.8066666666666 941.6310925925926Q1055.2066666666665 940.9010925925926 1053.9566666666665 940.9010925925926Q1052.4866666666667 940.9010925925926 1051.1266666666666 941.8110925925926T1049.0566666666666 944.0310925925926L1047.5266666666666 955.4610925925925H1045.6666666666665L1047.1366666666668 944.1910925925926Q1047.2366666666667 943.5510925925926 1047.2366666666667 943.0410925925926Q1047.2366666666667 941.4110925925926 1046.3366666666666 940.5110925925926L1047.7166666666667 939.3010925925926Q1048.1966666666667 939.6810925925926 1048.5966666666668 940.3510925925925Q1048.9966666666667 941.0310925925925 1049.1266666666666 941.8310925925925Q1051.2366666666667 939.1710925925926 1054.1466666666665 939.1710925925926Q1055.7166666666667 939.1710925925926 1056.7366666666667 939.9210925925926Q1057.7666666666667 940.6710925925926 1058.1166666666666 942.0810925925925Q1060.2866666666666 939.1710925925926 1063.2666666666667 939.1710925925926Q1065.2466666666667 939.1710925925926 1066.4166666666665 940.3210925925925T1067.5866666666666 943.3910925925926Q1067.5866666666666 943.6510925925926 1067.5266666666666 944.2910925925926L1066.4066666666665 952.8310925925925Q1066.3666666666666 953.2810925925926 1066.5966666666666 953.5510925925926Q1066.8166666666666 953.8310925925925 1067.1666666666665 953.8310925925925Q1067.4866666666667 953.8310925925925 1067.7766666666666 953.6710925925926T1068.2266666666665 953.2510925925926M1078.2966666666666 955.7710925925926Q1075.1966666666665 955.7710925925926 1073.5566666666666 954.0210925925926Q1071.9266666666665 952.2810925925926 1071.9266666666665 949.4010925925926Q1071.9266666666665 948.7010925925925 1072.0266666666666 947.9910925925926Q1072.3166666666666 945.8210925925927 1073.3566666666666 943.8010925925926T1076.1566666666665 940.4910925925926Q1077.9166666666665 939.1910925925927 1080.1866666666665 939.1910925925927Q1082.3566666666666 939.1910925925927 1083.8166666666666 940.3810925925927Q1085.2766666666666 941.5610925925927 1085.2766666666666 943.5410925925927Q1085.2766666666666 946.2010925925927 1083.1266666666666 947.6410925925927Q1080.9866666666667 949.0810925925928 1077.3066666666666 949.0510925925927L1073.8466666666666 949.0810925925927Q1073.7866666666666 951.5110925925926 1074.9166666666665 952.7810925925927Q1076.0566666666666 954.0410925925927 1078.3266666666666 954.0410925925927Q1079.7666666666667 954.0410925925927 1081.0166666666667 953.6210925925927Q1082.2666666666667 953.2110925925928 1083.5166666666667 952.3810925925927L1084.3466666666666 953.7210925925928Q1083.0366666666666 954.6810925925928 1081.4666666666667 955.2210925925928Q1079.8966666666665 955.7710925925927 1078.2966666666666 955.7710925925927M1077.8466666666666 947.3810925925927Q1080.2166666666667 947.3810925925927 1081.7066666666665 946.5710925925928Q1083.1966666666667 945.7510925925927 1083.4166666666665 943.9910925925927Q1083.4466666666665 943.8310925925928 1083.4466666666665 943.4810925925927Q1083.4466666666665 942.1710925925928 1082.5366666666664 941.5410925925927Q1081.6266666666666 940.9210925925927 1080.2166666666665 940.9210925925927Q1078.4566666666665 940.9210925925927 1077.0966666666666 941.9610925925926T1074.9366666666665 944.5210925925926T1073.9766666666665 947.4510925925925ZM1091.9966666666664 955.8310925925928Q1090.2666666666664 955.8310925925928 1088.9166666666665 955.1610925925928Q1087.5766666666666 954.4910925925928 1086.4266666666665 953.3010925925928L1087.5766666666666 952.0910925925928Q1088.5966666666666 953.0510925925928 1089.6766666666665 953.5810925925928Q1090.7466666666664 954.1010925925927 1092.0866666666666 954.1010925925927Q1093.9466666666667 954.1010925925927 1095.0666666666666 953.1310925925927Q1096.1866666666665 952.1510925925927 1096.1866666666665 950.5210925925927Q1096.1866666666665 949.8210925925927 1095.7966666666666 949.3510925925927Q1095.4166666666665 948.8910925925927 1094.8266666666666 948.5810925925928Q1094.2366666666667 948.2810925925928 1092.6666666666665 947.5410925925928Q1091.2266666666665 946.9010925925928 1090.4066666666665 946.4410925925928Q1089.5966666666666 945.9810925925927 1089.1166666666666 945.3010925925928Q1088.6366666666665 944.6310925925928 1088.6366666666665 943.6710925925928Q1088.6366666666665 943.2910925925928 1088.6666666666665 943.1010925925927Q1088.8866666666665 941.2410925925927 1090.3166666666666 940.1410925925927Q1091.7366666666665 939.0310925925927 1093.8766666666666 939.0310925925927Q1095.0366666666664 939.0310925925927 1096.1066666666666 939.3710925925927Q1097.1766666666665 939.7010925925928 1097.8766666666666 940.3110925925928L1096.9866666666665 941.6210925925927Q1095.7666666666664 940.7610925925927 1093.9166666666665 940.7610925925927Q1092.3166666666666 940.7610925925927 1091.4166666666665 941.4610925925928Q1090.5166666666664 942.1710925925928 1090.5166666666664 943.4210925925928Q1090.5166666666664 944.0610925925928 1090.9066666666665 944.4910925925928Q1091.2866666666664 944.9210925925928 1091.8166666666666 945.1910925925929T1093.7866666666666 946.1410925925929Q1096.0566666666666 947.131092592593 1097.0666666666666 948.011092592593T1098.0766666666666 950.3910925925929Q1098.0766666666666 950.841092592593 1098.0366666666664 951.0610925925929Q1097.7566666666667 953.2410925925928 1096.1066666666666 954.5410925925929Q1094.4566666666665 955.8310925925929 1091.9966666666664 955.8310925925929 "></path><path stroke="#cfeb9d" stroke-dasharray="3 3" stroke-width="3" d="M850.7427322404371 373.86979049756803H1202.2627322404371 " transform="matrix(.61 0 0 .99 395.62 452.2)"></path><path stroke="#cfeb9d" stroke-dasharray="2.9699999999999998 2.9699999999999998" stroke-width="2.97" d="M898.7846666666667 814.1410925925924H1246.7886666666668 "></path><path stroke="#cfeb9d" stroke-dasharray="3 3" stroke-width="3" d="M850.7427322404371 373.86979049756803H1202.2627322404371 " transform="matrix(.61 0 0 .99 431.93 432.37)"></path></g><rect width="560" height="388" x="720" y="556" id="space-saver" fill="transparent" stroke="transparent"></rect></g></svg>