<svg viewBox="0 0 21 26" xmlns="http://www.w3.org/2000/svg"><path d="M20.8305 10.3234C20.6334 10.3427 20.4363 10.353 20.2392 10.3545C18.0754 10.3545 16.057 9.23349 14.8701 7.37158V17.5286C14.8701 21.6739 11.6014 25.0354 7.56738 25.0354C3.53336 25.0354 0.267578 21.6739 0.267578 17.5286C0.267578 13.3832 3.53623 10.0217 7.57026 10.0217C7.72276 10.0217 7.87238 10.0365 8.022 10.0454V13.7441C7.87238 13.7263 7.7242 13.6968 7.57026 13.6968C5.51153 13.6968 3.84411 15.4123 3.84411 17.5271C3.84411 19.6434 5.51297 21.3574 7.57026 21.3574C9.629 21.3574 11.4475 19.6907 11.4475 17.5744L11.4834 0.326172H14.9262C15.2513 3.49986 17.7402 5.97847 20.8362 6.21065V10.322"></path></svg>