<svg xmlns="http://www.w3.org/2000/svg" version="1.1" xmlns:xlink="http://www.w3.org/1999/xlink" width="2000" height="50" viewBox="0 0 2000 50"><svg xml:space="preserve" width="495" height="50" data-version="2" data-id="lg_K2m8kn0tYNhPtp0JOr" viewBox="0 0 495 50" x="0" y="0"><rect width="100%" height="100%" fill="transparent"></rect><path fill="#919191" d="M65 38.415q.26-.13.48-.13.23 0 .36.16.13.16.13.4 0 .3-.24.68-.23.37-.73.67-2.85 1.68-5.64 3.34-2.78 1.67-5.29 3-2.52 1.33-4.66 2.16-2.15.83-3.76.83-.84 0-1.5-.26-.65-.26-1.1-.82-.45-.55-.7-1.42-.25-.87-.25-2.12 0-.9.14-2 .14-1.09.42-2.45.3-1.44.79-2.96.5-1.53 1.04-2.98.53-1.45 1.03-2.72.49-1.26.77-2.17-.49.07-.9.07-1.48 0-2.57-.55-1.08-.55-1.78-1.46-.7-.91-1.04-2.12-.35-1.2-.35-2.49 0-1.55.47-3.09.48-1.55 1.39-2.77.91-1.23 2.23-2 1.33-.78 3.02-.78 2.09 0 3.4.69t2.05 1.8q.74 1.1 1 2.49.26 1.38.26 2.78 0 .97-.08 1.89-.07.92-.16 1.71-.09.78-.16 1.41-.08.62-.08.96 3.42-.99 5.73-2.47 2.31-1.48 3.72-3.25 1.4-1.78 2-3.76.61-1.99.61-3.99 0-2.81-1.09-4.87-1.08-2.07-2.94-3.41-1.86-1.34-4.34-1.99-2.48-.64-5.28-.64-3.58 0-7.6.88-1.18 4.7-2.49 8.82-1.31 4.11-2.65 7.6-1.33 3.49-2.6 6.37-1.26 2.88-2.38 5.13-1.12 2.24-2 3.83-.88 1.59-1.42 2.54 1.59 1.22 2.84 2.09 1.25.87 2.17 1.5.92.62 1.55 1.04.62.42.98.74l-.36.6q-.32 0-.91-.24-.6-.23-1.33-.62-.73-.39-1.54-.88-.82-.49-1.58-1.03-.76-.54-1.41-1.05-.64-.52-1.03-.95-1.05 1.76-2.5 3.14-1.45 1.37-3.2 2.33-1.76.95-3.77 1.45-2.02.49-4.24.49-2.4 0-4.53-.37-2.13-.38-4.1-1.54-.39-.19-.8-.43-.41-.24-.75-.48-.34-.25-.58-.47-.24-.23-.28-.42h.39q.04 0 .85.35.8.36 2.07.77 1.27.42 2.86.77 1.59.34 3.2.34 1.59 0 3-.39 1.42-.38 2.64-1.05 1.21-.66 2.2-1.53.99-.88 1.74-1.83.75-.96 1.26-1.93.5-.98.74-1.86-2.34-1.83-4.01-3.61-1.66-1.79-2.73-3.53-1.06-1.74-1.56-3.41-.49-1.68-.49-3.29 0-2.43 1.02-4.66 1.02-2.24 2.82-4.22 1.79-1.99 4.23-3.7 2.44-1.71 5.27-3.1 2.84-1.4 5.94-2.44 3.11-1.04 6.24-1.69.37-.84.72-1.67.36-.84.72-1.7h.78q-.18.79-.36 1.57-.18.77-.37 1.52 1.89-.32 3.68-.49 1.79-.17 3.53-.17 2.41 0 4.68.34 2.26.34 4.24 1.04 1.98.7 3.61 1.76 1.63 1.07 2.8 2.5t1.82 3.23q.64 1.8.64 4 0 1.35-.25 2.83-.35 1.94-1.49 3.74-1.14 1.81-3.13 3.31-2 1.5-4.9 2.6-2.9 1.09-6.79 1.61-.15.45-.55 1.57t-.91 2.58q-.52 1.46-1.11 3.08-.59 1.62-1.1 3.09-.52 1.47-.92 2.64-.4 1.16-.55 1.67-.12.43-.12.8 0 .75.47 1.17.47.42 1.33.42.67 0 1.52-.27.84-.27 1.87-.87 1.08-.63 2.26-1.3 1.18-.68 2.65-1.53 1.48-.85 3.34-1.94 1.87-1.1 4.32-2.56m-37.44-2.79q.21-.32.91-1.68.7-1.35 1.77-3.5 1.08-2.15 2.43-4.97 1.35-2.83 2.9-6.12 1.55-3.28 3.19-6.9 1.64-3.62 3.28-7.36-2.6.71-5.13 1.75-2.52 1.04-4.78 2.38-2.25 1.35-4.17 2.96-1.91 1.61-3.29 3.45-1.39 1.83-2.17 3.89-.79 2.05-.79 4.26 0 2.77 1.38 5.75 1.37 2.97 4.47 6.09m18.95-7.26q.32-1.04.74-2.2.42-1.16.79-2.33.38-1.17.64-2.28.25-1.12.25-2.07 0-1.29-.62-2.07-.62-.78-2.23-.78-1.38 0-2.4.55-1.02.56-1.7 1.47-.67.9-1.02 2.04-.34 1.13-.34 2.32 0 1.07.28 2.07.28 1 .84 1.77.55.78 1.39 1.24.84.46 1.96.46.66 0 1.42-.19"></path><path fill="#919191" d="M71.21 36.545 65 40.195q-.15.09-.28.09-.21 0-.32-.18-.11-.19-.11-.46 0-.31.15-.65.16-.34.56-.58l7.95-4.68q1.48-.86 3.16-1.49 1.68-.62 3.41-1.02 1.73-.39 3.42-.58 1.7-.18 3.2-.18.86 0 1.62.12.75.12 1.3.34.54.23.85.55.32.32.32.73 0 .3-.22.43-.21.13-.5.18-.29.06-.61.08-.31.02-.48.11-.13.4-.41 1.25-.28.85-.56 1.74-.27.9-.5 1.59-.23.7-.25.81-.28.9-.76 2.29-.48 1.38-1.06 3.7.02 0 .48-.24.46-.25 1.2-.66.74-.41 1.69-.94.94-.54 1.95-1.1l5.14-3.03q.3-.17.51-.17.24 0 .37.16t.13.4q0 .3-.24.7-.23.39-.77.69l-11.43 6.71q-.43.25-.8.36-.36.11-.66.11-.43 0-.73-.19-.3-.2-.5-.54-.19-.34-.29-.78-.09-.45-.09-.94 0-.54.1-1.07.11-.54.28-1.03-.62 1.22-1.45 2.12-.82.9-1.76 1.52-.93.61-1.92.91-.99.3-1.93.3-.95 0-1.79-.3-.84-.3-1.47-.89-.63-.59-1-1.47-.36-.88-.36-2.04 0-.69.14-1.53.14-.84.37-1.7.24-.86.54-1.68.3-.83.62-1.52m11.05 2.04 2.27-6.29q-1.72 0-3.28.58-1.57.58-2.92 1.52-1.34.95-2.42 2.16-1.09 1.22-1.85 2.49-.76 1.28-1.18 2.53-.42 1.25-.42 2.23 0 1.1.48 1.78.49.67 1.58.67.65 0 1.41-.39.76-.4 1.54-1.06.79-.65 1.55-1.48t1.41-1.68q.64-.84 1.13-1.65.48-.81.7-1.41"></path><path fill="#919191" d="M121.31 33.325q-.81 0-2.04.46-1.22.46-2.68 1.27-1.46.8-3.04 1.9-1.58 1.1-3.1 2.38-1.51 1.29-2.88 2.72-1.36 1.43-2.37 2.87-.11.11-.11.48 0 .38-.12.79-.11.41-.46.73-.34.32-1.14.32-.55 0-.87-.13-.31-.13-.47-.35-.16-.23-.2-.54-.05-.31-.05-.7 0-.38.22-1.14.21-.75.56-1.74.34-.99.77-2.12.43-1.14.87-2.28t.84-2.21q.4-1.08.68-1.94l-10.38 6.1q-.11.03-.18.04-.08.01-.12.01-.3 0-.44-.16-.14-.17-.14-.4 0-.3.22-.66.23-.35.66-.61 3.22-1.91 5.32-3.15 2.09-1.23 3.36-1.98 1.27-.76 1.9-1.12.63-.37.96-.54.3-.17.54-.23.25-.07.55-.07.63 0 1.02.37.4.36.4.81 0 .45-.28 1.24-.28.78-.69 1.71-.41.92-.83 1.88-.43.95-.74 1.77-.12.32-.2.52-.07.21-.17.47-.1.25-.27.65t-.49 1.11q.9-1.16 2.11-2.43 1.22-1.27 2.64-2.48 1.43-1.21 3.06-2.31 1.62-1.1 3.35-1.92 1.73-.83 3.53-1.31 1.81-.49 3.59-.49 1.1 0 1.51.46.42.47.42 1.26 0 .65-.23 1.57-.24.92-.65 2.01-.41 1.08-.92 2.32-.52 1.23-1.09 2.49-.57 1.26-1.14 2.53-.56 1.26-1.06 2.42 1.23-.49 2.56-1.29 1.33-.79 2.84-1.78 1.52-.99 3.21-2.14 1.68-1.15 3.62-2.35.15-.09.4-.09.52 0 .52.58 0 .31-.24.66-.23.35-.68.63-2.56 1.59-4.62 3.03-2.07 1.44-3.77 2.56-1.71 1.12-3.12 1.77-1.41.66-2.61.66-.73 0-1.25-.19-.51-.18-.84-.48-.34-.3-.5-.72-.16-.42-.16-.87 0-.49.2-.98.21-.48.57-1.04.67-1.46 1.49-3.06.81-1.6 1.5-3.04t1.16-2.56q.47-1.11.47-1.61 0-.34-.28-.34"></path><path fill="#919191" d="M138.26 42.005q0-.8.49-1.91.48-1.12 1.27-2.28.78-1.16 1.77-2.22.99-1.07 1.97-1.73l-10.69 6.33q-.09.05-.17.06-.07.01-.14.01-.23 0-.36-.17-.13-.18-.13-.43 0-.3.19-.66.2-.35.61-.59l5.9-3.59q1.21-.73 2.73-1.55 1.53-.83 3.17-1.52 1.64-.69 3.32-1.15 1.68-.46 3.18-.46 1.4 0 2.47.43l5.61-11.32q.21-.45.46-.98t.65-.98q.39-.45 1-.76.62-.31 1.58-.31.3 0 .38.2.08.21.08.53-.05.3-.16.67-.1.38-.22.75-.12.36-.23.66-.1.3-.17.45l-6.4 13.92q-.47 1.4-1.17 2.89-.7 1.5-1.36 2.9-.65 1.41-1.11 2.64-.46 1.22-.46 2.08 0 .3.07.58.08.28.29.28.28 0 .85-.21.57-.22 1.3-.61.73-.38 1.58-.91.85-.53 1.69-1.13l5.58-3.5q.17-.09.26-.09.17 0 .27.18.09.17.09.4 0 .37-.16.72-.16.36-.46.57-1.22.82-2.52 1.69t-2.61 1.72q-1.31.85-2.57 1.62-1.26.77-2.42 1.42-1.65.92-2.96.92-.86 0-1.16-.47-.3-.47-.3-1.22 0-.46.07-.94.08-.48.23-1.04-.58.84-1.34 1.5-.75.67-1.6 1.14-.84.47-1.76.72-.91.25-1.77.25-.95 0-1.8-.31-.86-.31-1.51-.99-.64-.68-1.02-1.71-.38-1.03-.38-2.49m14.01-7.48q.09-.23.23-.58.14-.34.28-.66.14-.33.23-.59.1-.27.1-.38 0-.13-.49-.19-.5-.07-1.31-.07-1.08 0-2.18.57-1.11.57-2.15 1.49-1.05.93-1.96 2.12-.91 1.19-1.59 2.45-.67 1.26-1.07 2.48-.4 1.23-.4 2.21 0 1.34.45 1.9.45.57 1.18.57.99 0 2.14-.83 1.15-.84 2.31-2.33 1.16-1.5 2.26-3.58 1.09-2.09 1.97-4.58"></path><path fill="#919191" d="M183.85 29.775q1.23 0 2.19.5.95.49 1.61 1.34.65.85 1 1.99.34 1.14.34 2.43 0 .75-.17 1.65-.17.9-.5 1.86-.32.95-.78 1.9t-1.02 1.74q.41-.21.99-.54.58-.32 1.23-.7.66-.37 1.38-.78.72-.41 1.4-.79l3.33-1.96q.16-.09.41-.09.5 0 .5.52 0 .71-.91 1.35-.77.52-2.01 1.29-1.25.78-2.7 1.52-1.45.74-2.94 1.31-1.5.57-2.79.65-1.67 1.25-3.93 2.01-2.25.76-5.26.76-1.48 0-2.5-.25-1.03-.26-1.65-.75-.62-.5-.9-1.22t-.28-1.66q0-1.38.56-2.95.56-1.57 1.38-3.06.83-1.49 1.78-2.78.94-1.29 1.72-2.13-.69.6-1.95 1.44t-2.83 1.8q-1.58.95-3.36 1.98-1.77 1.03-3.51 2.04-.26.11-.47.11-.28 0-.43-.16-.15-.16-.15-.42 0-.3.25-.63.24-.34.8-.68 3.27-1.91 5.57-3.3 2.29-1.38 3.97-2.35 1.68-.97 2.92-1.55 1.25-.58 2.4-.9 1.15-.32 2.39-.43 1.25-.11 2.92-.11m-8.59 16.12q1.35 0 2.64-.56t2.52-1.53q-.28-.32-.39-.73-.11-.41-.11-.84 0-.75.5-1.12.49-.38 1.18-.38.73 0 1.42.43.68-.49 1.31-1.18.62-.69 1.08-1.46.46-.78.73-1.59.27-.82.27-1.59 0-.67-.25-1.28-.24-.61-.79-1.06-.55-.45-1.44-.72-.89-.27-2.16-.27-1.05 0-2.09.56-1.05.56-2 1.49-.96.93-1.79 2.13-.82 1.19-1.42 2.46-.61 1.26-.95 2.49-.34 1.22-.34 2.23 0 1.12.49 1.82.5.7 1.59.7"></path><path fill="#919191" d="m237.07 41.915 5.59-3.5q.28-.11.45-.11.3 0 .55.15.24.15.24.43 0 .3-.64.83-.65.53-1.57 1.13-.92.6-1.91 1.19-.99.59-1.7 1.02-.94.62-2.13 1.49-1.18.87-2.43 1.69-1.26.82-2.47 1.39-1.22.57-2.21.57-.88 0-1.49-.64-.61-.63-.61-2.03 0-.84.26-1.96.25-1.13.85-2.61.71-1.77 1.24-3.1t.87-2.28q.34-.94.52-1.55.17-.62.17-.96 0-.73-.54-.73t-1.5.7q-.97.7-2.16 1.84-1.19 1.13-2.49 2.61-1.3 1.47-2.49 3.04-1.18 1.56-2.12 3.09-.95 1.53-1.44 2.77-.09.22-.32.42-.24.2-.55.37-.31.16-.68.25-.36.1-.71.1-.58 0-1.01-.33-.43-.34-.43-1.15 0-.69.27-1.58.27-.89.53-1.69.36-1.29.78-2.61.42-1.32.79-2.42.43-1.26.85-2.47.2-.32.42-.69.23-.38.4-.77.17-.38.29-.76.12-.38.12-.68 0-.53-.49-.53-1.01 0-2.31.72t-2.69 1.87q-1.39 1.14-2.76 2.59-1.38 1.46-2.54 2.93-1.16 1.47-1.99 2.81-.84 1.34-1.16 2.29-.2.58-.36 1.01-.16.43-.35.71-.2.28-.48.42-.27.14-.73.14-.9 0-1.21-.51-.31-.5-.31-1.3 0-.36.21-1.13.22-.76.57-1.75.36-.99.79-2.13.43-1.15.87-2.3t.85-2.23q.4-1.07.68-1.91l-10.4 6.12q-.27.15-.53.15t-.44-.15q-.19-.15-.19-.4 0-.28.27-.65.27-.36.89-.73l7.67-4.51q.28-.22.66-.43.38-.22.79-.39.42-.17.85-.28.43-.1.86-.1.48 0 .85.22.38.23.64.56.25.33.39.74t.14.77q0 .39-.05.77-.05.37-.22.92-.16.55-.44 1.34-.28.8-.73 2.05.75-1.01 1.58-2.1.83-1.08 1.75-2.13.93-1.04 1.97-1.98 1.04-.95 2.2-1.66 1.16-.71 2.46-1.13 1.3-.42 2.74-.42.43 0 .85.21.42.2.75.63t.54 1.1q.2.66.2 1.57 0 1.05-.31 2.41-.31 1.37-1.06 3.11 1.52-2.24 3.08-3.75 1.56-1.52 3.03-2.5 1.47-.99 2.8-1.52 1.34-.52 2.41-.78.6 0 1.27.17.66.17 1.2.5.54.34.89.85.36.52.36 1.21 0 .19-.03.38-.02.2-.08.41-.26.9-.71 1.95-.45 1.04-.97 2.11-.51 1.08-1.06 2.12t-.98 1.95q-.43.92-.71 1.64-.28.72-.28 1.12 0 .52.39.52.32 0 1-.41.68-.41 1.56-1.02.88-.61 1.91-1.34 1.03-.73 2.06-1.38m81.15-3.5q.13-.06.26-.06.25 0 .47.25.21.26.21.56 0 .32-.21.6-.22.28-.67.6-.45.31-1.16.71-.71.41-1.69.99-.61.37-1.63 1.05-1.02.67-2.27 1.48-1.26.8-2.68 1.65-1.42.85-2.84 1.55-1.41.7-2.75 1.14-1.33.44-2.4.44-.67 0-1.22-.2-.54-.19-.93-.63t-.6-1.14q-.22-.7-.22-1.71 0-1.35.46-3.06.45-1.71 1.14-3.52.7-1.82 1.56-3.65.86-1.84 1.7-3.45t1.55-2.9q.71-1.29 1.09-2.02-1.37-.02-2.88-.12-1.5-.1-2.84-.29-1.35-.19-2.39-.47-1.04-.28-1.51-.67-2.02 2.45-4.53 5.04-2.5 2.59-5.35 5.03-2.84 2.44-5.98 4.62-3.14 2.18-6.41 3.8-3.28 1.62-6.64 2.58-3.36.95-6.65.95-1.27 0-2.43-.08-1.16-.09-2.23-.3-1.08-.22-2.06-.61-.99-.38-1.92-.98l-.75-.5q-.39-.26-.7-.51-.31-.26-.51-.51-.21-.25-.23-.46h.45q.02 0 .51.17.48.17 1.28.43.79.26 1.82.57 1.03.31 2.18.57 1.15.26 2.35.43 1.19.17 2.28.17 2.75 0 5.36-.97 2.61-.96 5.12-2.63 2.5-1.66 4.92-3.89 2.41-2.22 4.78-4.71 2.36-2.49 4.67-5.13 2.31-2.63 4.61-5.12 2.3-2.49 4.6-4.72 2.29-2.22 4.63-3.88 2.33-1.67 4.71-2.64 2.39-.96 4.84-.96 1.74 0 2.87.46 1.14.46 1.8 1.23.65.78.92 1.8t.27 2.14q0 1.22-.24 2.51-.23 1.29-.53 2.45-.3 1.16-.58 2.09-.28.94-.37 1.45l-.02.18q3.7-.65 6.48-1.73 2.78-1.09 4.65-2.44 1.87-1.36 2.8-2.89.94-1.54.94-3.08 0-1.79-1.27-3.47-1.27-1.69-3.83-2.99-2.57-1.3-6.45-2.08-3.88-.79-9.1-.79-2.25 0-5.08.25-2.82.25-6.04.65-3.21.41-6.72.93-3.51.51-7.17 1.06-3.65.55-7.34 1.06-3.7.52-7.28.93-3.57.41-6.95.65-3.37.25-6.38.25-2.4 0-4.43-.23-2.03-.22-3.58-.74-.24-.06-.88-.46-.65-.4-1.48-.98-.84-.58-1.74-1.24-.91-.67-1.66-1.27-.75-.6-1.25-1.06-.49-.46-.49-.62 0-.06.11-.06.15 0 .5.14.36.14 1 .46 3.25 1.66 7.58 2.33 4.32.68 9.91.68 2.97 0 6.7-.3 3.74-.3 8.02-.74 4.27-.44 9-.96 4.73-.51 9.68-.95 4.95-.44 10.03-.75 5.08-.3 10.09-.3 5.07 0 8.72.84 3.65.84 6.02 2.25 2.36 1.4 3.48 3.22 1.11 1.81 1.11 3.77 0 1.44-.57 2.88-.56 1.44-1.67 2.76-1.11 1.32-2.72 2.5t-3.68 2.08q-2.08.89-4.58 1.47t-5.4.73q-.2.41-.77 1.33-.57.92-1.36 2.18-.8 1.26-1.75 2.73-.96 1.47-1.92 3-.97 1.52-1.87 3-.91 1.49-1.6 2.73-.7 1.25-1.12 2.16-.42.91-.42 1.32 0 .71.3 1.02.3.31.86.31.69 0 1.74-.42 1.05-.43 2.34-1.15 1.29-.72 2.77-1.64 1.49-.91 3.05-1.89 1.57-.98 3.16-1.92 1.59-.95 3.12-1.72m-11.95-12.87q.63-1.31 1.39-2.78.76-1.47 1.43-2.92.66-1.45 1.11-2.8.46-1.34.46-2.37 0-.97-.37-1.37-.36-.41-.99-.41-.77 0-1.86.53-1.08.54-2.3 1.44-1.21.91-2.46 2.07-1.24 1.16-2.35 2.4-1.1 1.25-1.98 2.48-.89 1.24-1.34 2.29.26.35 1.18.61.93.27 2.24.46 1.31.18 2.85.27 1.53.1 2.99.1"></path><path fill="#919191" d="M344.19 33.325q-.81 0-2.04.46-1.22.46-2.68 1.27-1.46.8-3.04 1.9-1.58 1.1-3.1 2.38-1.51 1.29-2.88 2.72-1.36 1.43-2.37 2.87-.11.11-.11.48 0 .38-.12.79-.11.41-.46.73-.34.32-1.14.32-.56 0-.87-.13-.31-.13-.47-.35-.16-.23-.2-.54-.05-.31-.05-.7 0-.38.22-1.14.21-.75.56-1.74.34-.99.77-2.12.43-1.14.87-2.28t.84-2.21q.4-1.08.68-1.94l-10.38 6.1q-.11.03-.18.04-.08.01-.12.01-.3 0-.44-.16-.14-.17-.14-.4 0-.3.22-.66.23-.35.66-.61 3.22-1.91 5.32-3.15 2.09-1.23 3.36-1.98 1.27-.76 1.9-1.12.63-.37.96-.54.3-.17.54-.23.25-.07.55-.07.62 0 1.02.37.4.36.4.81 0 .45-.28 1.24-.28.78-.69 1.71l-.84 1.88q-.43.95-.73 1.77-.13.32-.2.52-.08.21-.17.47-.1.25-.27.65t-.49 1.11q.9-1.16 2.11-2.43 1.22-1.27 2.64-2.48 1.43-1.21 3.05-2.31 1.63-1.1 3.36-1.92 1.73-.83 3.53-1.31 1.81-.49 3.59-.49 1.09 0 1.51.46.42.47.42 1.26 0 .65-.23 1.57-.24.92-.65 2.01-.41 1.08-.92 2.32-.52 1.23-1.09 2.49-.57 1.26-1.14 2.53-.57 1.26-1.06 2.42 1.22-.49 2.56-1.29 1.33-.79 2.84-1.78 1.52-.99 3.2-2.14 1.69-1.15 3.62-2.35.16-.09.41-.09.52 0 .52.58 0 .31-.24.66-.23.35-.69.63-2.55 1.59-4.61 3.03-2.07 1.44-3.77 2.56-1.71 1.12-3.12 1.77-1.41.66-2.61.66-.73 0-1.25-.19-.51-.18-.85-.48-.33-.3-.49-.72-.16-.42-.16-.87 0-.49.2-.98.21-.48.57-1.04.67-1.46 1.49-3.06.81-1.6 1.5-3.04t1.16-2.56q.47-1.11.47-1.61 0-.34-.28-.34"></path><path fill="#919191" d="M380.09 40.195q-3.33 1.92-5.65 3.32-2.32 1.41-3.95 2.32-1.63.92-2.76 1.36-1.13.44-2.05.44-.91 0-1.54-.22-.63-.21-1.04-.58-.41-.36-.59-.88-.18-.51-.18-1.12 0-.45.19-.92.19-.47.48-.97.29-.49.61-1.04.33-.55.61-1.17l3.26-7.3-11.54 6.76q-.27.11-.38.11-.26 0-.46-.17-.21-.17-.21-.45 0-.26.23-.58.22-.32.82-.69l5.57-3.24q1.09-.65 2.21-1.29 1.12-.65 2.1-1.21.97-.55 1.76-.99.78-.45 1.21-.68h2.77q.09.06.15.21.07.15.07.45 0 .56-.32 1.58-.33 1.02-.81 2.29-.48 1.27-1.07 2.66-.59 1.38-1.11 2.63-.52 1.22-1.07 2.45-.56 1.22-1.12 2.51.58 0 1.84-.58 1.25-.58 3.05-1.58 1.79-1 4.06-2.34 2.26-1.34 4.86-2.87.09-.09.33-.09.25 0 .48.18.22.17.22.47 0 .26-.22.57-.23.31-.81.65m-7.26-12.71 1.33-4q.13 0 .49.01.35.01.8.05.45.05.95.14.49.1.9.28.41.19.69.46.28.28.3.69l-3.12 2.37-1.41.66q-.39 0-.61-.21-.21-.22-.32-.45"></path><path fill="#919191" d="m422.31 41.915 5.59-3.5q.28-.11.45-.11.3 0 .54.15.25.15.25.43 0 .3-.64.83-.65.53-1.57 1.13-.92.6-1.91 1.19-.99.59-1.7 1.02-.95.62-2.13 1.49t-2.44 1.69q-1.25.82-2.47 1.39-1.21.57-2.2.57-.88 0-1.49-.64-.61-.63-.61-2.03 0-.84.25-1.96.26-1.13.86-2.61.71-1.77 1.24-3.1.52-1.33.87-2.28.34-.94.51-1.55.18-.62.18-.96 0-.73-.54-.73t-1.5.7q-.97.7-2.16 1.84-1.2 1.13-2.5 2.61-1.3 1.47-2.48 3.04-1.18 1.56-2.12 3.09-.95 1.53-1.44 2.77-.09.22-.33.42-.23.2-.54.37-.32.16-.68.25-.37.1-.71.1-.58 0-1.01-.33-.43-.34-.43-1.15 0-.69.27-1.58.27-.89.53-1.69.36-1.29.78-2.61.42-1.32.78-2.42.43-1.26.86-2.47.2-.32.42-.69.23-.38.4-.77.17-.38.29-.76.12-.38.12-.68 0-.53-.5-.53-1.01 0-2.31.72t-2.68 1.87q-1.39 1.14-2.76 2.59-1.38 1.46-2.54 2.93-1.16 1.47-2 2.81-.83 1.34-1.16 2.29-.19.58-.35 1.01-.16.43-.35.71-.2.28-.48.42-.28.14-.73.14-.9 0-1.21-.51-.31-.5-.31-1.3 0-.36.21-1.13.22-.76.57-1.75.36-.99.79-2.13.42-1.15.87-2.3.44-1.15.84-2.23.41-1.07.69-1.91l-10.4 6.12q-.28.15-.53.15-.26 0-.44-.15-.19-.15-.19-.4 0-.28.27-.65.27-.36.89-.73l7.67-4.51q.28-.22.66-.43.37-.22.79-.39.42-.17.85-.28.43-.1.86-.1.47 0 .85.22.38.23.63.56.26.33.4.74t.14.77q0 .39-.05.77-.06.37-.22.92t-.44 1.34q-.28.8-.73 2.05.75-1.01 1.58-2.1.83-1.08 1.75-2.13.93-1.04 1.97-1.98 1.04-.95 2.2-1.66 1.16-.71 2.46-1.13 1.3-.42 2.74-.42.43 0 .85.21.42.2.75.63t.54 1.1q.2.66.2 1.57 0 1.05-.31 2.41-.31 1.37-1.06 3.11 1.52-2.24 3.08-3.75 1.56-1.52 3.03-2.5 1.47-.99 2.8-1.52 1.33-.52 2.41-.78.6 0 1.27.17.66.17 1.2.5.54.34.89.85.35.52.35 1.21 0 .19-.02.38-.02.2-.08.41-.26.9-.71 1.95-.45 1.04-.97 2.11-.51 1.08-1.06 2.12t-.98 1.95q-.43.92-.71 1.64-.28.72-.28 1.12 0 .52.39.52.32 0 1-.41.67-.41 1.56-1.02.88-.61 1.91-1.34 1.03-.73 2.06-1.38"></path><path fill="#919191" d="m434.1 36.545-6.2 3.65q-.15.09-.28.09-.22 0-.33-.18-.1-.19-.1-.46 0-.31.15-.65t.56-.58l7.95-4.68q1.48-.86 3.15-1.49 1.68-.62 3.41-1.02 1.73-.39 3.43-.58 1.69-.18 3.2-.18.86 0 1.61.12.75.12 1.3.34.55.23.86.55.31.32.31.73 0 .3-.22.43-.21.13-.5.18-.29.06-.6.08-.31.02-.49.11-.13.4-.4 1.25-.28.85-.56 1.74-.28.9-.51 1.59-.22.7-.24.81-.28.9-.77 2.29-.48 1.38-1.06 3.7.02 0 .48-.24l1.21-.66q.74-.41 1.68-.94.95-.54 1.96-1.1l5.13-3.03q.3-.17.52-.17.23 0 .36.16.13.16.13.4 0 .3-.23.7-.24.39-.78.69l-11.43 6.71q-.43.25-.79.36-.37.11-.67.11-.43 0-.73-.19-.3-.2-.49-.54-.2-.34-.29-.78-.1-.45-.1-.94 0-.54.11-1.07.1-.54.28-1.03-.63 1.22-1.45 2.12-.83.9-1.77 1.52-.93.61-1.92.91-.99.3-1.93.3-.95 0-1.79-.3-.83-.3-1.47-.89-.63-.59-1-1.47-.36-.88-.36-2.04 0-.69.14-1.53.14-.84.37-1.7.24-.86.54-1.68.3-.83.62-1.52m11.05 2.04 2.28-6.29q-1.72 0-3.29.58t-2.91 1.52q-1.35.95-2.43 2.16-1.09 1.22-1.85 2.49-.76 1.28-1.18 2.53-.42 1.25-.42 2.23 0 1.1.48 1.78.49.67 1.58.67.65 0 1.41-.39.76-.4 1.55-1.06.78-.65 1.54-1.48.77-.83 1.41-1.68.65-.84 1.13-1.65.48-.81.7-1.41"></path><path fill="#919191" d="M482.66 38.415q.15-.09.32-.09.26 0 .47.18.22.17.22.47 0 .26-.23.58-.22.32-.78.64-1.1.63-2.4 1.39-1.3.76-2.66 1.56-1.36.79-2.72 1.57-1.35.77-2.57 1.41-1.21.65-2.2 1.11-.99.46-1.61.63-.34.11-.63.14-.29.04-.53.04-.9 0-1.48-.46-.58-.45-.91-1.21-.34-.76-.47-1.78-.13-1.02-.13-2.16 0-1.55.16-3.15.15-1.6.27-2.95l-4.66 2.75-1.89 1.11q-.15.09-.34.09-.26 0-.45-.17-.2-.17-.2-.47 0-.26.22-.57.21-.32.77-.66l6.68-3.93q1.03-3.57 2.13-6.55 1.1-2.99 2.39-5.4 1.28-2.4 2.81-4.23 1.52-1.82 3.42-3.04 1.89-1.21 4.2-1.82 2.31-.62 5.14-.62 1.42 0 2.39.25.96.25 1.58.71.61.46.88 1.11.26.64.26 1.41 0 .97-.64 2.08-.64 1.1-1.74 2.28-1.1 1.19-2.54 2.4-1.43 1.21-3.02 2.4-1.59 1.18-3.24 2.27-1.64 1.1-3.13 2.04-1.5.95-2.75 1.7-1.26.75-2.06 1.23-.38 1.35-.77 2.83t-.7 2.99q-.31 1.5-.5 2.97-.2 1.48-.2 2.76 0 .52.1.89.1.36.33.36.41 0 1.22-.31.8-.31 1.86-.85 1.05-.54 2.31-1.23 1.25-.7 2.61-1.5 1.35-.79 2.72-1.61 1.38-.82 2.69-1.59m-11.37-7.69q1.29-.69 3.07-1.81 1.77-1.11 3.67-2.46 1.9-1.34 3.75-2.82 1.85-1.48 3.32-2.9 1.47-1.42 2.37-2.7.9-1.28.9-2.22 0-.8-.82-1.28-.83-.48-2.7-.48-2.94 0-5.09 1.05t-3.73 3.14q-1.58 2.08-2.71 5.21-1.12 3.12-2.03 7.27"></path></svg></svg>